<?xml version="1.0" encoding="iso-8859-1"?>
<!-- Generator: Adobe Illustrator 16.0.0, SVG Export Plug-In . SVG Version: 6.00 Build 0)  -->
<!DOCTYPE svg PUBLIC "-//W3C//DTD SVG 1.1//EN" "http://www.w3.org/Graphics/SVG/1.1/DTD/svg11.dtd">
<svg version="1.1" id="Capa_1" xmlns="http://www.w3.org/2000/svg" xmlns:xlink="http://www.w3.org/1999/xlink" x="0px" y="0px"
	 width="612px" height="612px" viewBox="0 0 612 612" style="enable-background:new 0 0 612 612;" xml:space="preserve">
<g>
	<g>
		<path d="M587.205,120.494c-0.502-0.836-48.982-82.355-135.148-53.307C435.763,49.688,382.384,0,301.39,0
			c-82.438,0-136.271,51.468-151.513,68.07C51.577,50.62,24.284,121.449,24.009,122.178c-0.657,1.792-0.824,3.728-0.49,5.626
			l69.433,385.763c-2.341,4.67-3.786,9.865-3.786,15.432v48.267c0,19.159,15.575,34.734,34.722,34.734h359.545
			c19.146,0,34.723-15.587,34.723-34.734v-48.267c0-8.729-3.345-16.626-8.684-22.729l78.938-378.19
			C588.972,125.486,588.53,122.775,587.205,120.494z M496.667,577.266c0,7.3-5.938,13.224-13.223,13.224H123.898
			c-7.286,0-13.223-5.924-13.223-13.224v-48.267c0-7.298,5.925-13.222,13.223-13.222h359.545c7.285,0,13.223,5.924,13.223,13.222
			V577.266L496.667,577.266z M489.894,494.91c-2.09-0.395-4.24-0.656-6.449-0.656H123.898c-4.288,0-8.349,0.884-12.147,2.316
			L45.27,127.207c5.101-10.284,29.634-49.688,99.173-38.114L198.718,451.9c0.8,5.339,5.387,9.173,10.618,9.173
			c0.526,0,1.063-0.048,1.601-0.119c5.865-0.884,9.926-6.343,9.042-12.219L165.286,83.169
			c11.61-12.625,57.082-56.807,125.354-61.167v426.422c0,5.948,4.813,10.749,10.75,10.749s10.75-4.801,10.75-10.749V21.858
			c63.221,4.001,106.793,42.271,122.153,57.965l-55.194,368.897c-0.884,5.877,3.165,11.335,9.042,12.221
			c0.537,0.07,1.075,0.118,1.601,0.118c5.243,0,9.818-3.821,10.618-9.174l54.275-362.711
			c63.77-24.283,102.564,25.047,111.856,38.771L489.894,494.91z"/>
	</g>
</g>
<g>
</g>
<g>
</g>
<g>
</g>
<g>
</g>
<g>
</g>
<g>
</g>
<g>
</g>
<g>
</g>
<g>
</g>
<g>
</g>
<g>
</g>
<g>
</g>
<g>
</g>
<g>
</g>
<g>
</g>
</svg>
